HIERARCHY
ROOT Hips
{
	OFFSET 0.000000 71.427986 0.000000
	CHANNELS 6 Xposition Yposition Zposition Xrotation Yrotation Zrotation
	JOINT Pelvis
	{
		OFFSET 0.000000 0.000000 0.000000
		CHANNELS 3 Xrotation Yrotation Zrotation
		JOINT LeftUpLeg
		{
			OFFSET 6.797100 -2.508499 -1.318700
			CHANNELS 3 Xrotation Yrotation Zrotation
			JOINT LeftLeg
			{
				OFFSET 0.069008 -29.241863 0.690200
				CHANNELS 3 Xrotation Yrotation Zrotation
				JOINT LeftFoot
				{
					OFFSET -0.069008 -29.568123 -0.266800
					CHANNELS 3 Xrotation Yrotation Zrotation
					JOINT LeftToeBase
					{
						OFFSET 3.145500 -8.631000 16.059900
						CHANNELS 3 Xrotation Yrotation Zrotation
						End Site
						{
							OFFSET 0.000000 18.501587 0.000000
						}
					}
				}
			}
			JOINT Left_ShortSleeve
			{
				OFFSET 0.265923 -10.480953 1.153800
				CHANNELS 3 Xrotation Yrotation Zrotation
				End Site
				{
					OFFSET 1.725763 19.823879 0.000000
				}
			}
		}
		JOINT RightUpLeg
		{
			OFFSET -6.797100 -2.508499 -1.318700
			CHANNELS 3 Xrotation Yrotation Zrotation
			JOINT RightLeg
			{
				OFFSET -0.082453 -29.241932 0.688000
				CHANNELS 3 Xrotation Yrotation Zrotation
				JOINT RightFoot
				{
					OFFSET 0.082453 -29.568058 -0.264600
					CHANNELS 3 Xrotation Yrotation Zrotation
					JOINT RightToeBase
					{
						OFFSET -3.115300 -8.682800 16.113400
						CHANNELS 3 Xrotation Yrotation Zrotation
						End Site
						{
							OFFSET 0.000000 18.567114 0.000000
						}
					}
				}
			}
			JOINT Right_ShortSleeve
			{
				OFFSET -0.265923 -10.480953 1.153800
				CHANNELS 3 Xrotation Yrotation Zrotation
				End Site
				{
					OFFSET -1.725766 19.823910 0.000000
				}
			}
		}
	}
	JOINT Spine
	{
		OFFSET 0.000000 13.368103 0.470500
		CHANNELS 3 Xrotation Yrotation Zrotation
		JOINT Spine1
		{
			OFFSET 0.147000 13.837402 0.538800
			CHANNELS 3 Xrotation Yrotation Zrotation
			JOINT Spine2
			{
				OFFSET 0.168000 16.242897 -1.435500
				CHANNELS 3 Xrotation Yrotation Zrotation
				JOINT Neck
				{
					OFFSET 0.217200 18.631500 -1.679100
					CHANNELS 3 Xrotation Yrotation Zrotation
					JOINT Head
					{
						OFFSET 0.000000 6.599396 1.385900
						CHANNELS 3 Xrotation Yrotation Zrotation
						JOINT Hat
						{
							OFFSET -0.532200 27.220596 -10.096100
							CHANNELS 3 Xrotation Yrotation Zrotation
							End Site
							{
								OFFSET 0.000000 22.029861 0.000000
							}
						}
						JOINT HairD
						{
							OFFSET -10.777400 17.437393 -1.325900
							CHANNELS 3 Xrotation Yrotation Zrotation
							JOINT HairD1
							{
								OFFSET -3.290299 -11.051193 1.062200
								CHANNELS 3 Xrotation Yrotation Zrotation
								End Site
								{
									OFFSET 0.000000 11.579437 0.000000
								}
							}
						}
						JOINT HairB
						{
							OFFSET -10.777400 17.437393 1.467900
							CHANNELS 3 Xrotation Yrotation Zrotation
							JOINT HairB1
							{
								OFFSET -1.561200 -12.956299 3.590200
								CHANNELS 3 Xrotation Yrotation Zrotation
								End Site
								{
									OFFSET 0.000000 13.534866 0.000000
								}
							}
						}
						JOINT HairA
						{
							OFFSET 9.713100 17.437393 1.467900
							CHANNELS 3 Xrotation Yrotation Zrotation
							JOINT HairA1
							{
								OFFSET 1.561200 -12.956299 3.590200
								CHANNELS 3 Xrotation Yrotation Zrotation
								End Site
								{
									OFFSET 0.000000 13.534866 0.000000
								}
							}
						}
						JOINT HairC
						{
							OFFSET 9.713100 17.437393 -1.325900
							CHANNELS 3 Xrotation Yrotation Zrotation
							JOINT HairC1
							{
								OFFSET 3.290300 -11.051193 1.062200
								CHANNELS 3 Xrotation Yrotation Zrotation
								End Site
								{
									OFFSET 0.000000 11.579437 0.000000
								}
							}
						}
					}
				}
				JOINT LeftShoulder
				{
					OFFSET 5.101800 15.108002 -2.763700
					CHANNELS 3 Xrotation Yrotation Zrotation
					JOINT LeftArm
					{
						OFFSET 9.825497 2.506317 -1.597400
						CHANNELS 3 Xrotation Yrotation Zrotation
						JOINT LeftForeArm
						{
							OFFSET 21.966244 0.000000 0.000000
							CHANNELS 3 Xrotation Yrotation Zrotation
							JOINT LeftHand
							{
								OFFSET 33.879036 0.000000 0.000000
								CHANNELS 3 Xrotation Yrotation Zrotation
								JOINT LeftHandThumb1
								{
									OFFSET 6.715286 -2.359680 3.363841
									CHANNELS 3 Xrotation Yrotation Zrotation
									JOINT LeftHandThumb2
									{
										OFFSET 2.507072 -1.447464 1.447461
										CHANNELS 3 Xrotation Yrotation Zrotation
										JOINT LeftHandThumb3
										{
											OFFSET 2.898338 -1.673355 1.673357
											CHANNELS 3 Xrotation Yrotation Zrotation
											End Site
											{
												OFFSET -0.295959 3.727692 -0.131651
											}
										}
									}
								}
								JOINT LeftHandIndex1
								{
									OFFSET 14.190811 -0.254547 3.840278
									CHANNELS 3 Xrotation Yrotation Zrotation
									JOINT LeftHandIndex2
									{
										OFFSET 3.551727 0.000000 -0.000000
										CHANNELS 3 Xrotation Yrotation Zrotation
										JOINT LeftHandIndex3
										{
											OFFSET 2.894196 0.000000 0.000000
											CHANNELS 3 Xrotation Yrotation Zrotation
											End Site
											{
												OFFSET -1.000603 2.690872 0.366626
											}
										}
									}
								}
								JOINT LeftHandMiddle1
								{
									OFFSET 13.776489 0.000000 0.000000
									CHANNELS 3 Xrotation Yrotation Zrotation
									JOINT LeftHandMiddle2
									{
										OFFSET 3.438232 0.000000 0.000000
										CHANNELS 3 Xrotation Yrotation Zrotation
										JOINT LeftHandMiddle3
										{
											OFFSET 3.691551 0.000000 0.000000
											CHANNELS 3 Xrotation Yrotation Zrotation
											End Site
											{
												OFFSET -1.082298 3.499527 0.457670
											}
										}
									}
								}
								JOINT LeftHandRing1
								{
									OFFSET 13.966164 -0.268127 -3.067488
									CHANNELS 3 Xrotation Yrotation Zrotation
									JOINT LeftHandRing2
									{
										OFFSET 3.162567 0.000000 0.000000
										CHANNELS 3 Xrotation Yrotation Zrotation
										JOINT LeftHandRing3
										{
											OFFSET 3.324348 0.000000 0.000000
											CHANNELS 3 Xrotation Yrotation Zrotation
											End Site
											{
												OFFSET -0.861900 3.184998 0.405154
											}
										}
									}
								}
								JOINT LeftHandPinky1
								{
									OFFSET 13.131393 -0.168503 -5.746925
									CHANNELS 3 Xrotation Yrotation Zrotation
									JOINT LeftHandPinky2
									{
										OFFSET 2.849182 0.000000 0.000000
										CHANNELS 3 Xrotation Yrotation Zrotation
										JOINT LeftHandPinky3
										{
											OFFSET 2.805038 0.000000 0.000000
											CHANNELS 3 Xrotation Yrotation Zrotation
											End Site
											{
												OFFSET -0.882500 2.642609 0.325652
											}
										}
									}
								}
							}
							JOINT Left_Sleeve
							{
								OFFSET 6.592125 -0.646545 0.805568
								CHANNELS 3 Xrotation Yrotation Zrotation
								End Site
								{
									OFFSET -0.000179 20.275787 -0.000000
								}
							}
						}
					}
				}
				JOINT RightShoulder
				{
					OFFSET -5.731700 15.108002 -2.763700
					CHANNELS 3 Xrotation Yrotation Zrotation
					JOINT RightArm
					{
						OFFSET -9.825497 2.506317 -1.597400
						CHANNELS 3 Xrotation Yrotation Zrotation
						JOINT RightForeArm
						{
							OFFSET -21.966242 0.000000 0.000000
							CHANNELS 3 Xrotation Yrotation Zrotation
							JOINT RightHand
							{
								OFFSET -33.879032 0.000000 0.000000
								CHANNELS 3 Xrotation Yrotation Zrotation
								JOINT RightHandThumb1
								{
									OFFSET -6.715286 -2.359680 3.363841
									CHANNELS 3 Xrotation Yrotation Zrotation
									JOINT RightHandThumb2
									{
										OFFSET -2.507072 -1.447464 1.447461
										CHANNELS 3 Xrotation Yrotation Zrotation
										JOINT RightHandThumb3
										{
											OFFSET -2.898338 -1.673355 1.673357
											CHANNELS 3 Xrotation Yrotation Zrotation
											End Site
											{
												OFFSET 0.295959 3.727692 -0.131651
											}
										}
									}
								}
								JOINT RightHandIndex1
								{
									OFFSET -14.190811 -0.254547 3.840278
									CHANNELS 3 Xrotation Yrotation Zrotation
									JOINT RightHandIndex2
									{
										OFFSET -3.551727 0.000000 -0.000000
										CHANNELS 3 Xrotation Yrotation Zrotation
										JOINT RightHandIndex3
										{
											OFFSET -2.894196 0.000000 0.000000
											CHANNELS 3 Xrotation Yrotation Zrotation
											End Site
											{
												OFFSET 1.000603 2.690872 0.366626
											}
										}
									}
								}
								JOINT RightHandMiddle1
								{
									OFFSET -13.776489 0.000000 0.000000
									CHANNELS 3 Xrotation Yrotation Zrotation
									JOINT RightHandMiddle2
									{
										OFFSET -3.438232 0.000000 0.000000
										CHANNELS 3 Xrotation Yrotation Zrotation
										JOINT RightHandMiddle3
										{
											OFFSET -3.691551 0.000000 0.000000
											CHANNELS 3 Xrotation Yrotation Zrotation
											End Site
											{
												OFFSET 1.082298 3.499527 0.457670
											}
										}
									}
								}
								JOINT RightHandRing1
								{
									OFFSET -13.966164 -0.268127 -3.067488
									CHANNELS 3 Xrotation Yrotation Zrotation
									JOINT RightHandRing2
									{
										OFFSET -3.162567 0.000000 0.000000
										CHANNELS 3 Xrotation Yrotation Zrotation
										JOINT RightHandRing3
										{
											OFFSET -3.324348 0.000000 0.000000
											CHANNELS 3 Xrotation Yrotation Zrotation
											End Site
											{
												OFFSET 0.861900 3.184998 0.405154
											}
										}
									}
								}
								JOINT RightHandPinky1
								{
									OFFSET -13.131393 -0.168503 -5.746925
									CHANNELS 3 Xrotation Yrotation Zrotation
									JOINT RightHandPinky2
									{
										OFFSET -2.849182 0.000000 0.000000
										CHANNELS 3 Xrotation Yrotation Zrotation
										JOINT RightHandPinky3
										{
											OFFSET -2.805038 0.000000 0.000000
											CHANNELS 3 Xrotation Yrotation Zrotation
											End Site
											{
												OFFSET 0.882500 2.642609 0.325652
											}
										}
									}
								}
							}
							JOINT Right_Sleeve
							{
								OFFSET -6.592125 -0.646545 0.805568
								CHANNELS 3 Xrotation Yrotation Zrotation
								End Site
								{
									OFFSET 0.000179 20.275787 -0.000000
								}
							}
						}
					}
				}
				JOINT Bind_Right_JacketString
				{
					OFFSET -3.534800 11.969597 7.200700
					CHANNELS 3 Xrotation Yrotation Zrotation
					JOINT Bind_Right_JacketString1
					{
						OFFSET -0.319900 -6.102600 2.794100
						CHANNELS 3 Xrotation Yrotation Zrotation
						End Site
						{
							OFFSET 0.000000 6.719452 0.000000
						}
					}
				}
				JOINT Bind_Left_JacketString
				{
					OFFSET 2.904800 11.969597 7.200700
					CHANNELS 3 Xrotation Yrotation Zrotation
					JOINT Bind_Left_JacketString1
					{
						OFFSET 0.364800 -5.904503 3.186800
						CHANNELS 3 Xrotation Yrotation Zrotation
						End Site
						{
							OFFSET 0.000000 6.719513 0.000000
						}
					}
				}
				JOINT HairE
				{
					OFFSET 5.915200 17.612701 -11.592200
					CHANNELS 3 Xrotation Yrotation Zrotation
					JOINT HairE1
					{
						OFFSET 0.289200 -7.171898 -1.284500
						CHANNELS 3 Xrotation Yrotation Zrotation
						End Site
						{
							OFFSET 0.000000 7.291756 0.000000
						}
					}
				}
				JOINT HairF
				{
					OFFSET -0.864800 17.612701 -11.592200
					CHANNELS 3 Xrotation Yrotation Zrotation
					JOINT HairF1
					{
						OFFSET 0.000000 -14.087097 -2.127501
						CHANNELS 3 Xrotation Yrotation Zrotation
						End Site
						{
							OFFSET 0.000000 14.246841 0.000000
						}
					}
				}
				JOINT HairG
				{
					OFFSET -8.087700 17.612701 -11.592200
					CHANNELS 3 Xrotation Yrotation Zrotation
					JOINT HairG1
					{
						OFFSET -0.293600 -6.081398 -0.910100
						CHANNELS 3 Xrotation Yrotation Zrotation
						End Site
						{
							OFFSET 0.000000 6.156120 0.000000
						}
					}
				}
			}
		}
	}
	JOINT Pouch
	{
		OFFSET 0.000000 4.394501 10.847300
		CHANNELS 3 Xrotation Yrotation Zrotation
		End Site
		{
			OFFSET 0.000000 21.880577 0.000000
		}
	}
	JOINT Bag
	{
		OFFSET -13.229000 4.813004 -0.593300
		CHANNELS 3 Xrotation Yrotation Zrotation
		End Site
		{
			OFFSET 0.000000 21.880577 0.000000
		}
	}
	JOINT OccupyGuyFacialAnim_Joint
	{
		OFFSET 1.000000 -70.206398 -1.655000
		CHANNELS 3 Xrotation Yrotation Zrotation
		End Site
		{
			OFFSET 0.000000 21.880577 0.000000
		}
	}
}
MOTION
Frames: 4
Frame Time: 0.033333
-0.117275 67.489136 1.020901 -17.724071 17.120986 29.699595 -0.000000 0.000000 0.000000 6.714829 1.030631 -20.201336 20.332887 8.464472 2.529848 -7.707290 7.208455 -7.065229 0.000000 0.000000 -0.000000 -0.000000 -0.000001 -0.000001 -23.212939 -1.904116 -16.237651 49.273815 -3.747956 -10.200977 -20.123660 0.160800 -1.082811 0.000001 0.000000 0.000000 0.000001 -0.000001 -0.000001 3.003246 -0.049632 2.321031 3.163548 0.169745 4.506501 3.191286 0.408676 4.465217 9.362180 -2.823027 -7.704239 -0.673563 -8.476560 -8.778065 0.000000 0.000001 0.000002 0.000000 0.000001 0.000002 0.000000 0.000001 0.000001 0.000000 0.000001 -0.000000 -0.000001 0.000002 -0.000000 0.000000 0.000001 -0.000000 -0.000001 0.000002 -0.000000 0.000000 0.000001 0.000002 0.000000 0.000001 0.000002 8.724865 0.497725 -6.963464 -5.594651 11.459047 -86.040392 0.000004 -21.053821 0.000006 7.272201 1.410516 -10.732047 0.976061 1.728094 -2.970274 6.953777 35.197963 4.464152 0.000000 -0.000002 -0.000003 -1.169450 5.081951 -39.953246 0.408134 2.878905 -21.153280 0.000002 -0.000000 -0.000000 1.158036 8.892816 -48.804994 1.003821 4.120940 -34.955272 0.000001 -0.000000 0.000004 4.175009 11.654810 -47.947385 2.037557 4.180057 -44.622828 -0.000001 0.000002 -0.000005 6.884009 18.539997 -52.602955 1.624299 4.344232 -49.256295 0.000002 0.000002 -0.000000 0.000001 0.000001 0.000002 3.814218 13.778588 -17.617151 21.244815 -10.548998 81.326366 0.000002 23.041018 -0.000007 10.621895 -1.665674 4.831094 -1.586540 1.654738 -5.521994 13.932803 -35.366942 -6.963450 0.000001 -0.000002 -0.000001 0.086725 -0.592819 1.482982 0.289356 -2.541610 17.608655 -0.000001 -0.000000 0.000000 -0.388096 -3.395003 13.430950 0.814961 -3.820248 31.393885 0.000002 -0.000004 -0.000003 0.889010 -7.995863 25.960605 0.910678 -2.918828 27.600707 -0.000001 0.000001 0.000002 -5.250969 -16.050256 35.276923 0.457480 -2.613535 28.370912 0.000002 -0.000000 0.000000 0.000001 0.000001 0.000000 -0.000000 0.000000 -0.000003 -0.000002 -0.000002 -0.000001 -0.000000 0.000000 -0.000001 -0.000000 0.000000 -0.000001 -0.000000 0.000000 -0.000003 -0.000002 -0.000002 -0.000001 -0.000000 0.000000 -0.000001 -0.000000 0.000000 -0.000001 -0.000000 0.000000 -0.000003 -0.000002 -0.000002 -0.000001 -0.000000 0.000000 0.000000 -0.000000 0.000000 0.000000 -0.000000 0.000000 0.000000 
-0.190849 67.476204 1.089392 -17.841422 17.148525 29.740440 -0.000000 0.000000 -0.000001 6.833169 1.103829 -20.095564 20.418775 8.451810 2.568413 -7.761280 7.041902 -7.177866 0.000000 0.000000 -0.000000 -0.000001 0.000002 0.000000 -23.397762 -1.979710 -16.131531 50.272651 -4.217520 -10.267945 -22.525156 0.169689 -1.044468 0.000000 -0.000001 -0.000000 -0.000001 -0.000001 -0.000000 3.055500 -0.065025 2.179285 3.140535 0.123618 4.457897 3.171353 0.347725 4.419158 9.371394 -2.866584 -7.448705 -0.653789 -8.523706 -8.683325 -0.000001 -0.000001 -0.000000 -0.000001 -0.000001 -0.000000 -0.000001 -0.000001 -0.000001 -0.000001 -0.000001 -0.000002 -0.000001 -0.000001 -0.000000 -0.000001 -0.000001 -0.000002 -0.000001 -0.000001 -0.000000 -0.000001 -0.000001 -0.000000 -0.000001 -0.000001 -0.000000 8.731152 0.523015 -6.940306 -5.190428 11.584350 -86.057064 0.000010 -21.794685 -0.000016 7.124347 1.472302 -10.688365 0.811357 1.541053 -3.010960 6.969007 35.232670 4.454895 0.000001 0.000002 -0.000004 -1.202836 5.069104 -40.107875 0.407152 2.876338 -21.125864 0.000000 0.000001 0.000000 1.135402 8.876206 -48.912412 1.003367 4.120257 -34.947011 -0.000000 -0.000001 -0.000001 4.189319 11.660767 -48.055353 2.040700 4.182662 -44.663877 -0.000001 0.000001 -0.000001 6.876943 18.530086 -52.608572 1.622795 4.342699 -49.235009 -0.000002 0.000001 0.000001 -0.000001 0.000000 0.000002 3.707980 13.947748 -17.027288 21.300083 -10.981843 81.064995 0.000003 23.343341 0.000001 10.784315 -1.410163 4.553320 -1.626260 1.734752 -5.561221 13.946352 -35.390168 -6.958560 -0.000002 -0.000001 0.000002 0.057792 -0.584392 1.809669 0.290738 -2.545931 17.653625 0.000004 -0.000000 0.000004 -0.397086 -3.400230 13.595480 0.816040 -3.822096 31.415359 0.000002 -0.000002 0.000001 0.894427 -8.007259 26.049061 0.910527 -2.918578 27.597793 0.000001 0.000001 -0.000002 -5.238611 -16.058693 35.367310 0.456164 -2.610501 28.338200 -0.000000 0.000001 -0.000001 0.000001 -0.000001 -0.000000 -0.000002 -0.000000 0.000001 -0.000001 0.000001 0.000001 -0.000002 -0.000000 0.000003 -0.000002 -0.000000 0.000003 -0.000002 -0.000000 0.000001 -0.000001 0.000001 0.000001 -0.000002 -0.000000 0.000003 -0.000002 -0.000000 0.000003 -0.000002 -0.000000 0.000001 -0.000001 0.000001 0.000001 -0.000000 0.000000 -0.000001 -0.000000 0.000000 -0.000001 -0.000000 0.000000 -0.000001 
-0.284122 67.468353 1.155311 -17.886302 17.239824 29.705702 0.000002 0.000000 0.000002 6.850596 1.181892 -19.916053 20.499138 8.477845 2.613543 -7.793984 6.827491 -7.312914 0.000000 0.000002 0.000000 -0.000000 -0.000001 -0.000001 -23.533987 -1.948028 -15.917158 51.007658 -4.823613 -10.320617 -24.551579 0.154866 -0.923028 0.000001 0.000000 0.000000 0.000001 -0.000002 -0.000003 3.038030 -0.085079 2.082043 3.083338 0.079333 4.434211 3.116831 0.293065 4.397626 9.363260 -2.827564 -7.677454 -0.736146 -8.474075 -9.078078 0.000000 -0.000000 -0.000000 0.000000 -0.000000 -0.000000 0.000000 -0.000000 -0.000000 0.000000 -0.000000 0.000000 -0.000000 -0.000000 0.000001 0.000000 -0.000000 0.000000 -0.000000 -0.000000 0.000001 0.000000 -0.000000 -0.000000 0.000000 -0.000000 -0.000000 8.720373 0.476277 -6.817270 -4.819981 11.688434 -86.173000 0.000001 -22.227744 -0.000007 7.490741 1.528548 -10.600901 0.476339 1.189327 -3.241987 6.838556 34.932914 4.534123 0.000000 -0.000002 -0.000003 -1.245228 5.068232 -40.415196 0.405622 2.872372 -21.083853 0.000003 -0.000001 -0.000000 1.118267 8.870264 -49.193758 1.002745 4.119333 -34.935868 -0.000001 0.000001 0.000003 4.216788 11.670042 -48.289373 2.043116 4.184652 -44.695307 0.000000 0.000001 -0.000003 6.886703 18.497073 -52.767149 1.621691 4.341568 -49.219228 -0.000001 -0.000004 -0.000005 0.000000 -0.000002 0.000004 3.633388 14.108992 -16.319736 21.228098 -11.574765 80.780019 -0.000001 23.180402 -0.000001 10.927895 -1.146088 4.467612 -1.648274 1.745387 -5.485342 13.931767 -35.365166 -6.963857 0.000000 -0.000003 -0.000000 0.100006 -0.248807 1.281963 0.296573 -2.564170 17.843336 -0.000003 0.000001 0.000000 -0.363138 -3.507608 13.429905 0.815499 -3.821155 31.404418 -0.000002 0.000000 0.000003 0.933541 -8.099106 25.991421 0.907972 -2.914716 27.551311 -0.000002 0.000003 0.000002 -5.194031 -16.145807 35.400440 0.454446 -2.606543 28.295262 -0.000000 0.000002 -0.000001 0.000001 0.000001 0.000000 -0.000000 0.000000 0.000001 -0.000002 0.000000 0.000001 -0.000000 0.000000 0.000003 -0.000000 0.000000 0.000003 -0.000000 0.000000 0.000001 -0.000002 0.000000 0.000001 -0.000000 0.000000 0.000003 -0.000000 0.000000 0.000003 -0.000000 0.000000 0.000001 -0.000002 0.000000 0.000001 0.000002 0.000000 0.000002 0.000002 0.000000 0.000002 0.000002 0.000000 0.000002 
-0.391541 67.454041 1.211422 -17.882298 17.348846 29.600643 -0.000000 -0.000001 -0.000002 6.749683 1.281684 -19.715889 20.666544 8.520339 2.744960 -7.847022 6.618452 -7.507905 -0.000000 0.000002 -0.000000 -0.000001 -0.000002 -0.000000 -23.636411 -1.980979 -15.616459 51.624168 -5.483534 -10.336877 -26.377825 0.132865 -0.852798 -0.000001 0.000000 -0.000000 0.000002 0.000000 0.000001 2.979268 -0.100953 2.018176 3.026987 0.048858 4.423152 3.062143 0.259671 4.387491 9.342032 -2.724620 -8.280739 -0.893780 -8.347208 -9.836073 0.000001 -0.000001 -0.000001 0.000001 -0.000001 -0.000001 0.000001 -0.000001 -0.000001 0.000001 -0.000001 -0.000000 0.000000 -0.000002 -0.000000 0.000001 -0.000001 -0.000000 0.000000 -0.000002 -0.000000 0.000001 -0.000001 -0.000001 0.000001 -0.000001 -0.000001 8.704045 0.405569 -6.697327 -4.506264 11.729166 -86.281279 0.000002 -22.524188 0.000004 8.094744 1.402300 -10.405191 0.091244 0.781899 -3.461023 6.621855 34.427251 4.665197 -0.000000 0.000001 -0.000002 -1.302198 5.040636 -40.625320 0.404456 2.869354 -21.051837 0.000002 0.000001 0.000002 1.105869 8.865640 -49.380652 1.002712 4.119291 -34.935250 -0.000002 0.000001 0.000001 4.232760 11.675185 -48.427639 2.045670 4.186780 -44.728542 0.000001 -0.000000 -0.000000 6.859679 18.447952 -52.830161 1.622964 4.342871 -49.237358 -0.000001 -0.000002 0.000002 -0.000003 0.000002 -0.000002 3.596580 14.230871 -15.581243 20.883877 -12.034014 80.391825 -0.000008 22.432853 0.000003 11.162709 -1.014515 4.630103 -1.632053 1.656058 -5.303845 13.906744 -35.322197 -6.972965 0.000001 -0.000001 -0.000000 0.224798 0.534851 0.014234 0.307004 -2.596172 18.176805 0.000002 0.000000 0.000002 -0.301368 -3.700385 13.087271 0.813778 -3.818231 31.370526 0.000002 -0.000003 -0.000005 1.016643 -8.296073 25.863027 0.904748 -2.909769 27.492244 0.000002 -0.000002 -0.000001 -5.099278 -16.333829 35.450799 0.451845 -2.600547 28.230340 0.000000 0.000002 0.000004 0.000002 0.000000 -0.000002 0.000000 0.000000 -0.000002 -0.000000 -0.000002 -0.000002 0.000000 0.000000 -0.000002 0.000000 0.000000 -0.000002 0.000000 0.000000 -0.000002 -0.000000 -0.000002 -0.000002 0.000000 0.000000 -0.000002 0.000000 0.000000 -0.000002 0.000000 0.000000 -0.000002 -0.000000 -0.000002 -0.000002 -0.000000 -0.000001 -0.000002 -0.000000 -0.000001 -0.000002 -0.000000 -0.000001 -0.000002 
